<svg xmlns="http://www.w3.org/2000/svg" xmlns:svg="http://www.w3.org/2000/svg" id="svg136" fill="none" version="1.1" viewBox="0 0 40 40"><metadata id="metadata140"/><g id="g112" clip-path="url(#clip0)"><path id="path100" fill="#c1c1c1" d="M14.26 22.66l-1.13-1.88a1.25 1.25 0 00-2.12-.04L4.6 30.6a2.5 2.5 0 01-4.2-2.72l6.42-9.87a6.25 6.25 0 0110.6.19l.15.26-3.3 4.2z"/><path style="mix-blend-mode:color-burn" id="path102" fill="url(#linearGradient3753)" fill-opacity=".5" d="M14.26 22.66l-1.13-1.88a1.25 1.25 0 00-2.12-.04L4.6 30.6a2.5 2.5 0 01-4.2-2.72l6.42-9.87a6.25 6.25 0 0110.6.19l.15.26-3.3 4.2z"/><path id="path104" fill="#bcbcbc" d="M20.5 23.32l1.48 2.47c.46.78 1.59.81 2.1.06L35.44 9.22a2.5 2.5 0 014.12 2.81L28.21 28.67a6.25 6.25 0 01-10.52-.3l-.62-1.04 3.42-4.01z"/><path style="mix-blend-mode:color-burn" id="path106" fill="url(#linearGradient5170)" fill-opacity=".5" d="M20.5 23.32l1.48 2.47c.46.78 1.59.81 2.1.06L35.44 9.22a2.5 2.5 0 014.12 2.81L28.21 28.67a6.25 6.25 0 01-10.52-.3l-.62-1.04 3.42-4.01z"/><path id="path108" fill="#ababab" d="M11 20.74l1.25-1.82c1.3-1.9 3.98-2.7 5.16-.72l4.57 7.59c.42.7 1.37.8 1.93.26l-1.13 1.63c-1.28 1.87-3.92 2.63-5.09.68l-4.56-7.58a1.25 1.25 0 00-2.12-.04z"/><path style="mix-blend-mode:multiply" id="path110" fill="url(#linearGradient2715)" fill-opacity=".5" d="M11 20.74l1.25-1.82c1.3-1.9 3.98-2.7 5.16-.72l4.57 7.59c.42.7 1.37.8 1.93.26l-1.13 1.63c-1.28 1.87-3.92 2.63-5.09.68l-4.56-7.58a1.25 1.25 0 00-2.12-.04z"/></g><defs id="defs134"><linearGradient id="paint0_linear" x1="11.25" x2="4.69" y1="10.63" y2="21.25" gradientUnits="userSpaceOnUse"><stop id="stop114" stop-color="#945DD6"/><stop id="stop116" offset="1" stop-color="#945DD6" stop-opacity="0"/></linearGradient><linearGradient id="paint1_linear" x1="28.13" x2="18.44" y1="17.5" y2="31.25" gradientUnits="userSpaceOnUse"><stop id="stop119" stop-color="#945DD6" stop-opacity="0"/><stop id="stop121" offset="1" stop-color="#7B61FF"/></linearGradient><linearGradient id="paint2_linear" x1="12.81" x2="20.94" y1="17.81" y2="29.38" gradientUnits="userSpaceOnUse"><stop id="stop124" stop-color="#13ADC7"/><stop id="stop126" offset=".5" stop-color="#7B61FF" stop-opacity="0"/><stop id="stop128" offset="1" stop-color="#F46737"/></linearGradient><clipPath id="clip0"><path id="path131" fill="#fff" d="M0 4a4 4 0 014-4h32a4 4 0 014 4v32a4 4 0 01-4 4H4a4 4 0 01-4-4V4z"/></clipPath><linearGradient id="linearGradient5255" x1="11.25" x2="4.69" y1="10.63" y2="21.25" gradientUnits="userSpaceOnUse"><stop id="stop286" stop-color="#7b7b7b"/><stop id="stop288" offset="1" stop-color="#7b7b7b" stop-opacity="0"/></linearGradient><linearGradient id="linearGradient431" x1="28.13" x2="18.44" y1="17.5" y2="31.25" gradientUnits="userSpaceOnUse"><stop id="stop291" stop-color="#7b7b7b" stop-opacity="0"/><stop id="stop293" offset="1" stop-color="#7b7b7b"/></linearGradient><linearGradient id="linearGradient5858" x1="12.81" x2="20.94" y1="17.81" y2="29.38" gradientUnits="userSpaceOnUse"><stop id="stop296" stop-color="#828282"/><stop id="stop298" offset=".5" stop-color="#7b7b7b" stop-opacity="0"/><stop id="stop300" offset="1" stop-color="#8c8c8c"/></linearGradient><linearGradient id="linearGradient4960" x1="11.25" x2="4.69" y1="10.63" y2="21.25" gradientUnits="userSpaceOnUse"><stop id="stop677" stop-color="#878787"/><stop id="stop679" offset="1" stop-color="#878787" stop-opacity="0"/></linearGradient><linearGradient id="linearGradient5632" x1="28.13" x2="18.44" y1="17.5" y2="31.25" gradientUnits="userSpaceOnUse"><stop id="stop682" stop-color="#878787" stop-opacity="0"/><stop id="stop684" offset="1" stop-color="#878787"/></linearGradient><linearGradient id="linearGradient7272" x1="12.81" x2="20.94" y1="17.81" y2="29.38" gradientUnits="userSpaceOnUse"><stop id="stop687" stop-color="#8e8e8e"/><stop id="stop689" offset=".5" stop-color="#878787" stop-opacity="0"/><stop id="stop691" offset="1" stop-color="#989898"/></linearGradient><linearGradient id="linearGradient105" x1="11.25" x2="4.69" y1="10.63" y2="21.25" gradientUnits="userSpaceOnUse"><stop id="stop753" stop-color="#878787"/><stop id="stop755" offset="1" stop-color="#878787" stop-opacity="0"/></linearGradient><linearGradient id="linearGradient7955" x1="28.13" x2="18.44" y1="17.5" y2="31.25" gradientUnits="userSpaceOnUse"><stop id="stop758" stop-color="#878787" stop-opacity="0"/><stop id="stop760" offset="1" stop-color="#878787"/></linearGradient><linearGradient id="linearGradient472" x1="12.81" x2="20.94" y1="17.81" y2="29.38" gradientUnits="userSpaceOnUse"><stop id="stop763" stop-color="#8e8e8e"/><stop id="stop765" offset=".5" stop-color="#878787" stop-opacity="0"/><stop id="stop767" offset="1" stop-color="#989898"/></linearGradient><linearGradient id="linearGradient3318" x1="11.25" x2="4.69" y1="10.63" y2="21.25" gradientUnits="userSpaceOnUse"><stop id="stop836" stop-color="#939393"/><stop id="stop838" offset="1" stop-color="#939393" stop-opacity="0"/></linearGradient><linearGradient id="linearGradient2142" x1="28.13" x2="18.44" y1="17.5" y2="31.25" gradientUnits="userSpaceOnUse"><stop id="stop841" stop-color="#939393" stop-opacity="0"/><stop id="stop843" offset="1" stop-color="#939393"/></linearGradient><linearGradient id="linearGradient9081" x1="12.81" x2="20.94" y1="17.81" y2="29.38" gradientUnits="userSpaceOnUse"><stop id="stop846" stop-color="#9a9a9a"/><stop id="stop848" offset=".5" stop-color="#939393" stop-opacity="0"/><stop id="stop850" offset="1" stop-color="#a4a4a4"/></linearGradient><linearGradient id="linearGradient5724" x1="11.25" x2="4.69" y1="10.63" y2="21.25" gradientUnits="userSpaceOnUse"><stop id="stop932" stop-color="#9f9f9f"/><stop id="stop934" offset="1" stop-color="#9f9f9f" stop-opacity="0"/></linearGradient><linearGradient id="linearGradient1298" x1="28.13" x2="18.44" y1="17.5" y2="31.25" gradientUnits="userSpaceOnUse"><stop id="stop937" stop-color="#9f9f9f" stop-opacity="0"/><stop id="stop939" offset="1" stop-color="#9f9f9f"/></linearGradient><linearGradient id="linearGradient8040" x1="12.81" x2="20.94" y1="17.81" y2="29.38" gradientUnits="userSpaceOnUse"><stop id="stop942" stop-color="#a6a6a6"/><stop id="stop944" offset=".5" stop-color="#9f9f9f" stop-opacity="0"/><stop id="stop946" offset="1" stop-color="#b0b0b0"/></linearGradient><linearGradient id="linearGradient3753" x1="11.25" x2="4.69" y1="10.63" y2="21.25" gradientUnits="userSpaceOnUse"><stop id="stop1038" stop-color="#ababab"/><stop id="stop1040" offset="1" stop-color="#ababab" stop-opacity="0"/></linearGradient><linearGradient id="linearGradient5170" x1="28.13" x2="18.44" y1="17.5" y2="31.25" gradientUnits="userSpaceOnUse"><stop id="stop1043" stop-color="#ababab" stop-opacity="0"/><stop id="stop1045" offset="1" stop-color="#ababab"/></linearGradient><linearGradient id="linearGradient2715" x1="12.81" x2="20.94" y1="17.81" y2="29.38" gradientUnits="userSpaceOnUse"><stop id="stop1048" stop-color="#b2b2b2"/><stop id="stop1050" offset=".5" stop-color="#ababab" stop-opacity="0"/><stop id="stop1052" offset="1" stop-color="#bcbcbc"/></linearGradient></defs></svg>